<?xml version='1.0' encoding='utf-8'?>
<svg xmlns="http://www.w3.org/2000/svg" version="1.1">
  <rect x="0" y="0" width="1000" height="400" fill="#ffffff" strokeWidth="0" stroke="none" />
  <text x="500" y="24" fontFamily="Verdana" fontSize="16" style="text-anchor: middle;">Altimetría</text>
  <polyline points="80.00,340.00 80.00,36.26 101.46,34.95 122.61,33.03 142.27,32.96 156.75,32.16 162.31,32.07 167.19,32.70 171.70,33.94 176.25,35.11 181.00,35.73 186.63,36.60 191.82,37.40 196.54,38.04 201.66,38.93 206.68,39.66 212.12,40.34 217.47,41.18 223.93,42.56 230.56,44.41 235.71,46.02 241.35,47.79 247.90,49.62 253.14,50.52 259.08,51.15 264.54,51.39 271.19,51.15 277.02,50.41 282.56,49.11 290.71,46.61 298.71,43.93 305.26,42.12 312.68,40.25 319.45,38.61 324.92,37.21 330.22,36.01 344.60,35.06 350.21,33.71 354.78,33.13 361.07,33.56 366.77,34.51 382.47,38.97 388.93,41.07 393.69,42.38 398.96,43.58 405.02,45.03 410.79,46.37 416.63,47.65 421.75,48.77 429.44,50.68 436.84,52.29 444.33,53.35 462.44,54.44 475.86,54.69 502.35,53.07 506.84,52.58 511.39,51.89 517.27,50.87 522.01,49.77 530.25,47.54 536.30,45.50 559.42,37.60 567.31,35.10 571.65,33.95 596.37,30.92 601.00,30.56 605.57,30.38 610.31,30.20 625.89,30.00 650.95,32.48 656.47,33.39 663.73,35.01 686.74,41.82 722.06,56.22 766.84,62.25 773.95,61.51 780.41,60.86 786.13,60.14 792.33,59.63 797.43,59.33 804.51,59.23 810.65,59.31 830.48,60.47 870.84,56.80 876.97,55.06 882.15,53.19 887.69,51.54 893.65,49.44 902.83,46.00 912.84,42.92 960.00,36.53 960.00,36.26 960.00,340.00" stroke="none" strokeWidth="0" fill="#ffebee" />
  <polyline points="80.00,36.26 101.46,34.95 122.61,33.03 142.27,32.96 156.75,32.16 162.31,32.07 167.19,32.70 171.70,33.94 176.25,35.11 181.00,35.73 186.63,36.60 191.82,37.40 196.54,38.04 201.66,38.93 206.68,39.66 212.12,40.34 217.47,41.18 223.93,42.56 230.56,44.41 235.71,46.02 241.35,47.79 247.90,49.62 253.14,50.52 259.08,51.15 264.54,51.39 271.19,51.15 277.02,50.41 282.56,49.11 290.71,46.61 298.71,43.93 305.26,42.12 312.68,40.25 319.45,38.61 324.92,37.21 330.22,36.01 344.60,35.06 350.21,33.71 354.78,33.13 361.07,33.56 366.77,34.51 382.47,38.97 388.93,41.07 393.69,42.38 398.96,43.58 405.02,45.03 410.79,46.37 416.63,47.65 421.75,48.77 429.44,50.68 436.84,52.29 444.33,53.35 462.44,54.44 475.86,54.69 502.35,53.07 506.84,52.58 511.39,51.89 517.27,50.87 522.01,49.77 530.25,47.54 536.30,45.50 559.42,37.60 567.31,35.10 571.65,33.95 596.37,30.92 601.00,30.56 605.57,30.38 610.31,30.20 625.89,30.00 650.95,32.48 656.47,33.39 663.73,35.01 686.74,41.82 722.06,56.22 766.84,62.25 773.95,61.51 780.41,60.86 786.13,60.14 792.33,59.63 797.43,59.33 804.51,59.23 810.65,59.31 830.48,60.47 870.84,56.80 876.97,55.06 882.15,53.19 887.69,51.54 893.65,49.44 902.83,46.00 912.84,42.92 960.00,36.53 960.00,36.26" stroke="red" strokeWidth="2.5" fill="none" />
  <line x1="80.00" y1="30.00" x2="80.00" y2="340.00" stroke="#d0d0d0" strokeWidth="1" />
  <line x1="312.68" y1="30.00" x2="312.68" y2="340.00" stroke="#d0d0d0" strokeWidth="1" />
  <line x1="462.44" y1="30.00" x2="462.44" y2="340.00" stroke="#d0d0d0" strokeWidth="1" />
  <line x1="766.84" y1="30.00" x2="766.84" y2="340.00" stroke="#d0d0d0" strokeWidth="1" />
  <line x1="960.00" y1="30.00" x2="960.00" y2="340.00" stroke="#d0d0d0" strokeWidth="1" />
  <text x="196.34" y="358.00" fontFamily="Verdana" fontSize="10" style="text-anchor: middle;">S1</text>
  <text x="387.56" y="358.00" fontFamily="Verdana" fontSize="10" style="text-anchor: middle;">S2</text>
  <text x="614.64" y="358.00" fontFamily="Verdana" fontSize="10" style="text-anchor: middle;">S3</text>
  <text x="863.42" y="358.00" fontFamily="Verdana" fontSize="10" style="text-anchor: middle;">S4</text>
  <line x1="74" y1="30.00" x2="80" y2="30.00" stroke="#000000" strokeWidth="1" />
  <text x="70" y="34.00" fontFamily="Verdana" fontSize="11" style="text-anchor: end;">338</text>
  <line x1="80" y1="340.00" x2="960" y2="340.00" stroke="#000000" strokeWidth="1.5" />
  <line x1="80" y1="340.00" x2="80" y2="30.00" stroke="#000000" strokeWidth="1.5" />
</svg>